# xmcd
#
# Track frame offsets:
# 150
# 12237
# 24924
# 40789
# 54713
# 73915
# 87916
# 100600
# 116801
# 129707
# 145876
# 159473
# 180454
# 182920
# 185480
# 188572
# 196014
# 203070
# 205379
# 210055
# 212570
# 216720
# 221053
# 227103
# 231016
# 236357
# 241190
# 250864
# 253913
# 258762
# 262911
# 268539
#
# Disc length: 3636 seconds
#
#
# Revision: 0
# Processed by: cddbd v1.5.2PL0 Copyright (c) Steve Scherf et al.
# Submitted via: FreeRIP 2.943 
#
DISCID=cc0e3220
DTITLE=Vern Gosdin - The Truly Great Hits Of Vern Gosdin
DYEAR=1900
DGENRE=Country
TTITLE0=I Can Tell By The Way You Dance
TTITLE1=What Would Your Memories Do
TTITLE2=Dim Lights, Thick Smoke And Loud, Loud Music
TTITLE3=Today My World Slipped Away
TTITLE4=Jesus Hold My Hand
TTITLE5=Turn, Turn, Turn
TTITLE6=Way Down Deep
TTITLE7=Time Stood Still
TTITLE8=Slow Burning Memory
TTITLE9=I Wonder Where We'd Be Tonight
TTITLE10=I Know The Way To You By Heart
TTITLE11=I Can Tell By The Way You Dance (Remix)
TTITLE12=Interview With Vern Gosdin
TTITLE13=Interview With Vern Gosdin
TTITLE14=Interview With Vern Gosdin
TTITLE15=Interview With Vern Gosdin
TTITLE16=Interview With Vern Gosdin
TTITLE17=Interview With Vern Gosdin
TTITLE18=Interview With Vern Gosdin
TTITLE19=Interview With Vern Gosdin
TTITLE20=Interview With Vern Gosdin
TTITLE21=Interview With Vern Gosdin
TTITLE22=Interview With Vern Gosdin
TTITLE23=Interview With Vern Gosdin
TTITLE24=Interview With Vern Gosdin
TTITLE25=Interview With Vern Gosdin
TTITLE26=Interview With Vern Gosdin
TTITLE27=Interview With Vern Gosdin
TTITLE28=Interview With Vern Gosdin
TTITLE29=Interview With Vern Gosdin
TTITLE30=Interview With Vern Gosdin
TTITLE31=Interview With Vern Gosdin
EXTD=
EXTT0=
EXTT1=
EXTT2=
EXTT3=
EXTT4=
EXTT5=
EXTT6=
EXTT7=
EXTT8=
EXTT9=
EXTT10=
EXTT11=
EXTT12=
EXTT13=
EXTT14=
EXTT15=
EXTT16=
EXTT17=
EXTT18=
EXTT19=
EXTT20=
EXTT21=
EXTT22=
EXTT23=
EXTT24=
EXTT25=
EXTT26=
EXTT27=
EXTT28=
EXTT29=
EXTT30=
EXTT31=
PLAYORDER=
